<svg xmlns="http://www.w3.org/2000/svg" width="179" height="95" viewBox="0 0 179 95">
  <g id="Group_302" data-name="Group 302" transform="translate(-178 -1923)">
    <rect id="Rectangle_89" data-name="Rectangle 89" width="179" height="95" rx="40" transform="translate(178 1923)" fill="#217262"/>
    <path id="Icon_material-nature-people" data-name="Icon material-nature-people" d="M56.909,21.964A18.709,18.709,0,1,0,35.073,40.379V50.91H13.691V42.891h2.673V32.2a2.681,2.681,0,0,0-2.673-2.673H5.673A2.681,2.681,0,0,0,3,32.2V42.891H5.673V56.255H48.436V50.91H40.418V40.54A18.709,18.709,0,0,0,56.909,21.964ZM9.682,26.855a4.009,4.009,0,1,0-4.009-4.009A4,4,0,0,0,9.682,26.855Z" transform="translate(238 1940.745)" fill="#fff"/>
  </g>
</svg>
