<svg xmlns="http://www.w3.org/2000/svg" width="179" height="100" viewBox="0 0 179 100">
  <g id="Group_304" data-name="Group 304" transform="translate(-178 -2375)">
    <rect id="Rectangle_91" data-name="Rectangle 91" width="179" height="100" rx="40" transform="translate(178 2375)" fill="#217262"/>
    <path id="Icon_material-screen-lock-landscape" data-name="Icon material-screen-lock-landscape" d="M62.723,7.5H7.622A6.14,6.14,0,0,0,1.5,13.622V44.234a6.14,6.14,0,0,0,6.122,6.122h55.1a6.14,6.14,0,0,0,6.122-6.122V13.622A6.14,6.14,0,0,0,62.723,7.5ZM56.6,44.234H13.745V13.622H56.6ZM29.051,41.173H41.3a3.07,3.07,0,0,0,3.061-3.061V28.928A3.07,3.07,0,0,0,41.3,25.867V22.806a6.122,6.122,0,1,0-12.245,0v3.061a3.07,3.07,0,0,0-3.061,3.061v9.184A3.07,3.07,0,0,0,29.051,41.173ZM31.5,22.806a3.673,3.673,0,1,1,7.347,0v3.061H31.5V22.806Z" transform="translate(232.5 2396.072)" fill="#fff"/>
  </g>
</svg>
