<svg xmlns="http://www.w3.org/2000/svg" width="56.627" height="45.299" viewBox="0 0 56.627 45.299"><path d="M11.325,8.494A4.247,4.247,0,1,0,7.078,4.247,4.248,4.248,0,0,0,11.325,8.494Zm33.974,0a4.247,4.247,0,1,0-4.247-4.247A4.248,4.248,0,0,0,45.3,8.494ZM56.421,41.415l-3.893-9.732-3.636,4.105-.177,1.61,2.451,6.122A2.829,2.829,0,0,0,53.793,45.3a2.751,2.751,0,0,0,1.053-.2A2.83,2.83,0,0,0,56.421,41.415ZM53.4,22.853l-1.637-7.1a5.734,5.734,0,0,0-3.318-3.973,5.459,5.459,0,0,0-4.963.292,9.693,9.693,0,0,0-4.256,5.255l-1,3-1.416.9V12.74a1.42,1.42,0,0,0-1.416-1.416H21.234a1.42,1.42,0,0,0-1.416,1.416v8.494l-1.424-.9-1-3a9.624,9.624,0,0,0-4.256-5.255,5.461,5.461,0,0,0-4.963-.292,5.734,5.734,0,0,0-3.318,3.973l-1.628,7.1A5.668,5.668,0,0,0,4.5,27.87l5.946,6.715.894,8.193A2.833,2.833,0,0,0,14.156,45.3c.106,0,.2-.009.31-.018a2.827,2.827,0,0,0,2.5-3.123l-.894-8.211a5.655,5.655,0,0,0-1.38-3.1l-3.831-4.335,1.557-6.22.6,1.8a5.722,5.722,0,0,0,2.168,2.884l4.521,2.875a3.767,3.767,0,0,0,1.522.442H35.39a3.767,3.767,0,0,0,1.522-.442l4.521-2.875A5.686,5.686,0,0,0,43.6,22.1l.6-1.8,1.557,6.22-3.831,4.335a5.655,5.655,0,0,0-1.38,3.1l-.894,8.211a2.833,2.833,0,0,0,2.5,3.123c.106.009.2.018.31.018a2.833,2.833,0,0,0,2.814-2.522l.894-8.193,5.946-6.715A5.694,5.694,0,0,0,53.4,22.853ZM4.1,31.683.2,41.415a2.831,2.831,0,1,0,5.255,2.106L7.91,37.4l-.177-1.61L4.1,31.683Z" transform="translate(0.001)" fill="#fff"/></svg>