<svg xmlns="http://www.w3.org/2000/svg" width="94.836" height="107.452" viewBox="0 0 94.836 107.452"><g transform="translate(0.566 0.5)"><path d="M25.805,48.985a4.362,4.362,0,0,1-3.081-7.443L61.2,3.066a10.486,10.486,0,0,1,14.812,0L113.942,41a4.36,4.36,0,0,1-6.165,6.165L69.847,9.231a1.754,1.754,0,0,0-2.481,0L28.886,47.708a4.338,4.338,0,0,1-3.081,1.277Z" transform="translate(-21.449 -0.003)" fill="#fff" stroke="#707070" stroke-width="1"/><path d="M101.51,158.766l-.2.674a.66.66,0,0,0,.378,0Zm0,0-.2.674a.66.66,0,0,0,.378,0Zm16.184-22.426H84.623A16.527,16.527,0,0,0,68.09,152.873v33.071a16.53,16.53,0,0,0,16.536,16.533h33.068a16.533,16.533,0,0,0,16.533-16.533V152.873A16.533,16.533,0,0,0,117.694,136.34ZM101.36,193.706l-7.866-7.872,7.81-26.394a.7.7,0,0,1-.444-.334l-5.713-9.9a.719.719,0,0,1,.624-1.079H107.2a.719.719,0,0,1,.624,1.079l-5.713,9.9a.686.686,0,0,1-.426.328l7.189,26.755Zm.331-34.26-.18-.668-.2.674a.66.66,0,0,0,.378-.018Zm-.18-.668-.2.674a.659.659,0,0,0,.378,0Zm0,0-.2.674a.659.659,0,0,0,.378,0Z" transform="translate(-54.298 -96.025)" fill="#fff" stroke="#707070" stroke-width="1"/><path d="M180.818,212.834a.659.659,0,0,1-.379,0l.2-.674Z" transform="translate(-133.426 -149.425)" fill="#fff" stroke="#707070" stroke-width="1"/><path d="M180.818,212.834a.659.659,0,0,1-.379,0l.2-.674Z" transform="translate(-133.426 -149.425)" fill="#fff" stroke="#707070" stroke-width="1"/></g></svg>