<svg xmlns="http://www.w3.org/2000/svg" width="94.744" height="107.558" viewBox="0 0 94.744 107.558"><path d="M25.85,49.494a4.407,4.407,0,0,1-3.113-7.52L61.614,3.1a10.6,10.6,0,0,1,14.966,0L114.9,41.421a4.4,4.4,0,0,1-6.229,6.229L70.35,9.327a1.772,1.772,0,0,0-2.507,0L28.964,48.2a4.383,4.383,0,0,1-3.113,1.291Z" transform="translate(-21.449 -0.003)" fill="#fff"/><path d="M96.82,154.673a9.788,9.788,0,1,0,4.765,18.342,9.958,9.958,0,0,0,2.265-1.739,9.791,9.791,0,0,0-7.03-16.6Zm0,0a9.788,9.788,0,1,0,4.765,18.342,9.958,9.958,0,0,0,2.265-1.739,9.791,9.791,0,0,0-7.03-16.6Zm21.392-18.333H84.795a16.7,16.7,0,0,0-16.7,16.707v33.412a16.7,16.7,0,0,0,16.7,16.7h33.418a16.707,16.707,0,0,0,16.7-16.7V153.044A16.7,16.7,0,0,0,118.213,136.34Zm2.041,52.584a2.241,2.241,0,0,1-3.17,0l-13.523-13.517a2.091,2.091,0,0,1-.335-.433,12.3,12.3,0,1,1,3.287-2.922,2.139,2.139,0,0,1,.218.188l13.523,13.52a2.241,2.241,0,0,1,0,3.17ZM96.82,154.673a9.788,9.788,0,1,0,4.765,18.342,9.958,9.958,0,0,0,2.265-1.739,9.791,9.791,0,0,0-7.03-16.6Z" transform="translate(-54.155 -95.606)" fill="#fff"/></svg>