<svg xmlns="http://www.w3.org/2000/svg" width="93.771" height="106.453" viewBox="0 0 93.771 106.453"><path d="M25.805,48.986a4.362,4.362,0,0,1-3.081-7.443L61.2,3.066a10.486,10.486,0,0,1,14.812,0L113.943,41a4.36,4.36,0,0,1-6.165,6.165L69.847,9.231a1.754,1.754,0,0,0-2.481,0L28.886,47.708a4.338,4.338,0,0,1-3.081,1.277Z" transform="translate(-21.449 -0.003)" fill="#fff"/><path d="M117.695,136.34H84.623A16.531,16.531,0,0,0,68.09,152.876v33.069a16.533,16.533,0,0,0,16.533,16.533h33.072a16.536,16.536,0,0,0,16.536-16.533V152.873A16.535,16.535,0,0,0,117.7,136.34ZM99.281,164.728q.257,1.035.9,3.137h7.475v4.9h-6.443v.257a9.294,9.294,0,0,1-.71,3.395,8.1,8.1,0,0,1-2.3,3.179h14.821v5.757h-22l-.887-3.566a11.926,11.926,0,0,0,3.137-3.823,11.123,11.123,0,0,0,.988-4.941v-.257H89.354V167.88h3.608a21.811,21.811,0,0,1-.988-6.015,9.066,9.066,0,0,1,1.289-4.876,8.413,8.413,0,0,1,3.628-3.2,12.275,12.275,0,0,1,5.349-1.118,10.512,10.512,0,0,1,7.671,2.706,10.648,10.648,0,0,1,3.114,7.047h-6.8a4.6,4.6,0,0,0-1.138-2.729,3.35,3.35,0,0,0-2.6-1.053,3.223,3.223,0,0,0-2.558,1.053,4.4,4.4,0,0,0-.923,2.987,8.481,8.481,0,0,0,.272,2.058Z" transform="translate(-54.298 -96.025)" fill="#fff"/></svg>