<svg xmlns="http://www.w3.org/2000/svg" width="93.77" height="106.452" viewBox="0 0 93.77 106.452"><path d="M25.805,48.985a4.362,4.362,0,0,1-3.081-7.443L61.2,3.066a10.486,10.486,0,0,1,14.812,0L113.942,41a4.36,4.36,0,0,1-6.165,6.165L69.847,9.231a1.754,1.754,0,0,0-2.481,0L28.886,47.708a4.338,4.338,0,0,1-3.081,1.277Z" transform="translate(-21.449 -0.003)" fill="#fff"/><path d="M117.7,136.34H84.623A16.53,16.53,0,0,0,68.09,152.876v33.068a16.533,16.533,0,0,0,16.533,16.533H117.7a16.535,16.535,0,0,0,16.533-16.53V152.873A16.533,16.533,0,0,0,117.7,136.34Zm-8.8,29.831-3.548-3.747-7.54,6.934,4.48,4.746a1.922,1.922,0,0,1-.035,2.679L91.247,187.789a1.923,1.923,0,0,1-2.718-2.72l9.7-9.684-4.536-4.8a1.922,1.922,0,0,1,.095-2.732l8.913-8.215-3.72-3.912,15.377-4.1Z" transform="translate(-54.298 -96.025)" fill="#fff"/></svg>