<svg xmlns="http://www.w3.org/2000/svg" width="93.77" height="106.452" viewBox="0 0 93.77 106.452"><path d="M25.805,48.985a4.362,4.362,0,0,1-3.081-7.443L61.2,3.066a10.486,10.486,0,0,1,14.812,0L113.942,41a4.36,4.36,0,0,1-6.165,6.165L69.847,9.231a1.754,1.754,0,0,0-2.481,0L28.886,47.708a4.338,4.338,0,0,1-3.081,1.277Z" transform="translate(-21.449 -0.003)" fill="#fff"/><path d="M117.687,136.34H84.616A16.53,16.53,0,0,0,68.08,152.873v33.071a16.533,16.533,0,0,0,16.536,16.533h33.071a16.535,16.535,0,0,0,16.533-16.53V152.873A16.533,16.533,0,0,0,117.687,136.34ZM80.393,172.971H121.91C100.01,204.6,80.393,172.971,80.393,172.971Z" transform="translate(-54.291 -96.025)" fill="#fff"/></svg>