<svg xmlns="http://www.w3.org/2000/svg" width="93.77" height="106.452" viewBox="0 0 93.77 106.452"><path d="M25.805,48.985a4.362,4.362,0,0,1-3.081-7.443L61.2,3.066a10.486,10.486,0,0,1,14.812,0L113.942,41a4.36,4.36,0,1,1-6.165,6.165L69.847,9.231a1.754,1.754,0,0,0-2.481,0L28.886,47.708a4.338,4.338,0,0,1-3.081,1.277Z" transform="translate(-21.449 -0.003)" fill="#fff"/><path d="M164.205,205.369A7.383,7.383,0,1,1,156.823,198,7.383,7.383,0,0,1,164.205,205.369Z" transform="translate(-111.178 -137.563)" fill="#fff"/><path d="M117.694,136.34H84.623A16.53,16.53,0,0,0,68.09,152.876v33.068a16.533,16.533,0,0,0,16.533,16.533h33.071a16.533,16.533,0,0,0,16.533-16.533V152.873A16.533,16.533,0,0,0,117.694,136.34ZM99.952,186.668S88.928,171,88.928,161.6c0-5.222,4.938-9.462,11.024-9.462s11.024,4.234,11.024,9.462c-.009,9.007-11.033,25.064-11.033,25.064Z" transform="translate(-54.298 -96.025)" fill="#fff"/></svg>