<svg xmlns="http://www.w3.org/2000/svg" width="267.693" height="80.474" viewBox="0 0 267.693 80.474"><path d="M100.367,13.5,26.748.089.082,13.5H0V60.466l80.475,6.685V80.564l20.119-20.1V13.5h-.226" transform="translate(0 -0.089)" fill="#79ed43" fill-rule="evenodd"/><path d="M19.3,17.374c0-2.689-1.871-4.053-4.871-4.053h-3.7v8.106h3.7C17.426,21.428,19.3,20.064,19.3,17.374ZM6.046,8.879H15.01c5.417,0,9.042,3.507,9.042,8.5,0,4.093-2.183,7.211-6.08,8.185l6.82,10.6H19.336l-6.47-10.289H10.723V36.16H6.046Z" transform="translate(7.452 10.745)" fill="#217262" fill-rule="evenodd"/><path d="M28.7,20.6c-.078-1.6-1.559-3.741-4.638-3.741A4.251,4.251,0,0,0,19.545,20.6ZM33.38,22.24c0,.351,0,1.053-.039,1.754h-13.8a5.272,5.272,0,0,0,5.183,3.741,7.436,7.436,0,0,0,5.067-1.871l2.338,3.508a11.831,11.831,0,0,1-7.4,2.65,9.71,9.71,0,0,1-9.938-9.7c0-5.417,3.936-9.7,9.276-9.7A9.291,9.291,0,0,1,33.38,22.24Z" transform="translate(18.23 15.349)" fill="#217262" fill-rule="evenodd"/><path d="M41.073,19.591V31.555H36.4V20.76a3.409,3.409,0,0,0-3.663-3.78,4.558,4.558,0,0,0-3.664,2.377v12.2H24.393V13.082h4.365v2.689a6.383,6.383,0,0,1,5.534-3.157,6.619,6.619,0,0,1,6.781,6.976" transform="translate(30.066 15.349)" fill="#217262" fill-rule="evenodd"/><path d="M32.75,15.858h3.624v-5.5h4.677v5.5h5.573v4.209H41.051V27.51c0,2.26,1.169,2.923,2.416,2.923a3.7,3.7,0,0,0,1.949-.663l1.715,3.82A8.415,8.415,0,0,1,42.688,34.8a6.184,6.184,0,0,1-6.314-6.547V20.067H32.75V15.858" transform="translate(40.367 12.573)" fill="#217262" fill-rule="evenodd"/><path d="M52.493,8.879,61.379,22.6,70.265,8.879h4.326V36.16H69.914V17.842L61.379,30.82,52.845,17.842V36.16H48.168V8.879h4.326" transform="translate(59.37 10.745)" fill="#217262" fill-rule="evenodd"/><path d="M63.636,35.155a4.386,4.386,0,0,0,2.455,1.208c1.6,0,2.26-.468,3.157-2.728l.741-1.909-9-18.9h5.183L72.4,26.347l4.871-13.523H82.3l-8.964,22.6c-1.6,4.053-4.209,5.3-6.937,5.3a8.183,8.183,0,0,1-4.949-1.949l2.183-3.625" transform="translate(75.17 15.607)" fill="#217262" fill-rule="evenodd"/><path d="M88.214,8.879h4.677V36.16H88.214V24.429H76.561V36.16H71.885V8.879h4.677V19.986H88.214V8.879" transform="translate(88.604 10.745)" fill="#217262" fill-rule="evenodd"/><path d="M97.712,22.319a5.111,5.111,0,1,0-10.211,0,5.111,5.111,0,1,0,10.211,0Zm4.754,0a9.861,9.861,0,1,1-9.86-9.7A9.715,9.715,0,0,1,102.466,22.319Z" transform="translate(101.991 15.349)" fill="#217262" fill-rule="evenodd"/><path d="M120.782,19.668V31.555H116.1V20.876c0-2.533-.973-3.9-3.313-3.9a4.385,4.385,0,0,0-3.623,2.377v12.2H104.49V20.876c0-2.533-.974-3.9-3.312-3.9a4.385,4.385,0,0,0-3.624,2.377v12.2H92.877V13.082h4.365v2.689a6.409,6.409,0,0,1,5.456-3.157c4.443,0,5.729,3.235,5.729,3.235a6.468,6.468,0,0,1,5.885-3.235c3.742,0,6.47,2.611,6.47,7.054" transform="translate(114.478 15.349)" fill="#217262" fill-rule="evenodd"/><path d="M120.678,20.6c-.078-1.6-1.558-3.741-4.637-3.741A4.248,4.248,0,0,0,111.52,20.6Zm4.677,1.636c0,.351,0,1.053-.04,1.754h-13.8a5.271,5.271,0,0,0,5.182,3.741,7.431,7.431,0,0,0,5.066-1.871l2.34,3.508a11.83,11.83,0,0,1-7.405,2.65,9.709,9.709,0,0,1-9.937-9.7c0-5.417,3.936-9.7,9.276-9.7A9.291,9.291,0,0,1,125.356,22.24Z" transform="translate(131.596 15.349)" fill="#217262" fill-rule="evenodd"/><path d="M91.756,28.1a1.689,1.689,0,1,1-1.689,1.689A1.68,1.68,0,0,1,91.756,28.1" transform="translate(111.015 34.436)" fill="#217262" fill-rule="evenodd"/><path d="M100.3,31.857l1.689,1.71a5.484,5.484,0,0,1-4.19,1.924,5.325,5.325,0,1,1,0-10.647,5.433,5.433,0,0,1,4.147,1.881l-1.775,1.582A3.148,3.148,0,0,0,97.8,27.239a2.93,2.93,0,0,0,0,5.858,2.992,2.992,0,0,0,2.5-1.24" transform="translate(113.824 30.423)" fill="#217262" fill-rule="evenodd"/><path d="M105.316,30.168a2.8,2.8,0,1,0-5.6,0,2.8,2.8,0,1,0,5.6,0Zm2.608,0a5.41,5.41,0,1,1-5.409-5.324A5.33,5.33,0,0,1,107.923,30.168Z" transform="translate(119.69 30.423)" fill="#217262" fill-rule="evenodd"/><path d="M104.4,28.1a1.689,1.689,0,1,1-1.688,1.689A1.679,1.679,0,0,1,104.4,28.1" transform="translate(126.607 34.436)" fill="#217262" fill-rule="evenodd"/><path d="M105.3,31.523V24.959h2.565v5.858c0,1.5.705,2.138,2.009,2.138a2.492,2.492,0,0,0,2.009-1.24V24.959h2.567V35.093h-2.4V33.618a3.653,3.653,0,0,1-6.756-2.1" transform="translate(129.793 30.565)" fill="#217262" fill-rule="evenodd"/><path d="M113.249,32.286l3.635-4H120.2l-4.447,4.789,4.746,5.345h-3.378L113.249,34v4.426h-2.565V22.259h2.565V32.286" transform="translate(136.427 27.236)" fill="#217262" fill-rule="evenodd"/><path d="M121.512,10.175l1.965,3.143,1.947-3.143h1.384V16.5h-1.487v-3.69l-1.88,2.956-1.88-2.956V16.5h-1.485V10.175Zm-5.452,1.418H114.3V10.175h5.005v1.418h-1.759v4.9H116.06Z" transform="translate(140.885 12.342)" fill="#217262" fill-rule="evenodd"/></svg>