<svg id="stars-5-1" xmlns="http://www.w3.org/2000/svg" width="239.343" height="44.877" viewBox="0 0 239.343 44.877">
  <g id="Group_48" data-name="Group 48">
    <path id="Path_44" data-name="Path 44" d="M0,0H44.877V44.877H0ZM48.616,0H93.493V44.877H48.616ZM97.233,0H142.11V44.877H97.233Zm48.616,0h44.877V44.877H145.849Zm48.616,0h44.877V44.877H194.466Z" fill="#00b67a"/>
  </g>
  <path id="Path_45" data-name="Path 45" d="M30.107,38.872l6.825-1.73,2.852,8.788ZM45.814,27.513H33.8L30.107,16.2,26.414,27.513H14.4l9.723,7.012L20.43,45.837l9.723-7.012,5.984-4.3Zm32.91,11.359,6.825-1.73L88.4,45.931ZM94.43,27.513H82.416L78.723,16.2,75.03,27.513H63.016l9.723,7.012L69.047,45.837l9.723-7.012,5.984-4.3Zm32.91,11.359,6.825-1.73,2.852,8.788Zm15.707-11.359H131.033L127.34,16.2l-3.693,11.313H111.633l9.723,7.012-3.693,11.313,9.723-7.012,5.984-4.3Zm32.91,11.359,6.825-1.73,2.852,8.788Zm15.707-11.359H179.649L175.956,16.2l-3.693,11.313H160.249l9.723,7.012L166.28,45.837,176,38.825l5.984-4.3Zm32.91,11.359,6.825-1.73,2.852,8.788ZM240.28,27.513H228.266L224.573,16.2,220.88,27.513H208.866l9.723,7.012L214.9,45.837l9.723-7.012,5.984-4.3Z" transform="translate(-7.668 -8.627)" fill="#fff"/>
</svg>
