<svg xmlns="http://www.w3.org/2000/svg" width="53.841" height="61.123" viewBox="0 0 53.841 61.123"><path d="M23.95,28.128a2.5,2.5,0,0,1-1.769-4.274L44.274,1.761a6.021,6.021,0,0,1,8.5,0L74.557,23.54a2.5,2.5,0,1,1-3.54,3.54L49.238,5.3a1.007,1.007,0,0,0-1.425,0L25.719,27.394a2.491,2.491,0,0,1-1.769.733Z" transform="translate(-21.449 -0.003)" fill="#217262"/><path d="M96.572,136.34H77.583a9.489,9.489,0,0,0-9.493,9.493v18.989a9.491,9.491,0,0,0,9.494,9.493H96.572a9.493,9.493,0,0,0,9.493-9.493V145.833A9.493,9.493,0,0,0,96.572,136.34ZM73.549,147.006a5.5,5.5,0,0,1,5.5-5.5H83a.849.849,0,1,1,0,1.7H79.046a3.8,3.8,0,0,0-3.8,3.8v3.951a.849.849,0,0,1-1.7,0Zm17.466.482a3.924,3.924,0,0,1,3.924,3.924v7.848a3.924,3.924,0,0,1-3.924,3.922H83.167a3.924,3.924,0,0,1-3.924-3.922V151.4a3.924,3.924,0,0,1,3.924-3.915ZM83,169.34H79.046a5.5,5.5,0,0,1-5.5-5.5v-3.959a.849.849,0,1,1,1.7,0v3.956a3.8,3.8,0,0,0,3.8,3.8H83a.849.849,0,0,1,0,1.7Zm17.609-5.5a5.5,5.5,0,0,1-5.5,5.5H91.15a.849.849,0,1,1,0-1.7h3.958a3.8,3.8,0,0,0,3.8-3.8v-3.956a.849.849,0,1,1,1.7,0Zm0-12.87a.849.849,0,1,1-1.7,0V147a3.8,3.8,0,0,0-3.8-3.8H91.166a.849.849,0,1,1,0-1.7h3.951a5.5,5.5,0,0,1,5.5,5.5Z" transform="translate(-60.171 -113.192)" fill="#217262"/></svg>