<svg xmlns="http://www.w3.org/2000/svg" width="53.841" height="61.123" viewBox="0 0 53.841 61.123"><path d="M23.95,28.128a2.5,2.5,0,0,1-1.769-4.274L44.274,1.761a6.021,6.021,0,0,1,8.5,0L74.557,23.54a2.5,2.5,0,1,1-3.54,3.54L49.238,5.3a1.007,1.007,0,0,0-1.425,0L25.719,27.394a2.491,2.491,0,0,1-1.769.733Z" transform="translate(-21.449 -0.003)" fill="#217262"/><path d="M96.572,136.34H77.583a9.489,9.489,0,0,0-9.493,9.493v18.989a9.491,9.491,0,0,0,9.494,9.493H96.572a9.493,9.493,0,0,0,9.493-9.493V145.833A9.493,9.493,0,0,0,96.572,136.34ZM95.536,158.2H90.877l-4.284,7.5a.652.652,0,0,1-.567.328H83.356a.7.7,0,0,1-.17-.024.654.654,0,0,1-.448-.807l2-7h-4.2l-1.766,2.348a.654.654,0,0,1-.521.261H76.618a.644.644,0,0,1-.16-.02.652.652,0,0,1-.472-.791l1.284-4.414-1.284-4.414a.624.624,0,0,1-.02-.16.652.652,0,0,1,.652-.652h1.644a.654.654,0,0,1,.521.261l1.761,2.348h4.192l-2-7a.629.629,0,0,1-.025-.178.652.652,0,0,1,.652-.652h2.669a.654.654,0,0,1,.567.328l4.284,7.5h4.659c1.44,0,3.905,1.166,3.905,2.608s-2.472,2.625-3.912,2.625Z" transform="translate(-60.171 -113.192)" fill="#217262"/></svg>