<svg xmlns="http://www.w3.org/2000/svg" width="53.843" height="61.123" viewBox="0 0 53.843 61.123"><path d="M18.25,28.128a2.5,2.5,0,0,1-1.769-4.274L38.574,1.761a6.021,6.021,0,0,1,8.5,0L68.859,23.54a2.5,2.5,0,1,1-3.542,3.54L43.538,5.3a1.007,1.007,0,0,0-1.425,0L20.021,27.394A2.5,2.5,0,0,1,18.25,28.128Z" transform="translate(-15.749 -0.003)" fill="#217262"/><path d="M150.546,203.385v7.447a.715.715,0,0,1-.713.715h-4.9a.715.715,0,0,1,0-1.43h4.184v-6.732a.715.715,0,0,1,1.428,0Z" transform="translate(-122.407 -168.289)" fill="#217262"/><path d="M90.952,136.34H71.963a9.489,9.489,0,0,0-9.493,9.493v18.989a9.491,9.491,0,0,0,9.494,9.493H90.952a9.493,9.493,0,0,0,9.493-9.493V145.833A9.493,9.493,0,0,0,90.952,136.34Zm-8.99,29.086a10.612,10.612,0,0,1,0-21.223h0a10.612,10.612,0,0,1,0,21.223Z" transform="translate(-54.537 -113.192)" fill="#217262"/></svg>