<svg xmlns="http://www.w3.org/2000/svg" width="53.841" height="61.123" viewBox="0 0 53.841 61.123"><path d="M23.95,28.128a2.5,2.5,0,0,1-1.769-4.274L44.274,1.761a6.021,6.021,0,0,1,8.5,0L74.557,23.54a2.5,2.5,0,1,1-3.54,3.54L49.238,5.3a1.007,1.007,0,0,0-1.425,0L25.719,27.394a2.491,2.491,0,0,1-1.769.733Z" transform="translate(-21.449 -0.003)" fill="#217262"/><path d="M96.572,136.34H77.583a9.489,9.489,0,0,0-9.493,9.493v18.989a9.491,9.491,0,0,0,9.494,9.493H96.572a9.493,9.493,0,0,0,9.493-9.493V145.833A9.493,9.493,0,0,0,96.572,136.34Zm-4.939,24.493a1.825,1.825,0,0,1-1.825,1.827H78.793a1.825,1.825,0,0,1-1.825-1.827V149.819A1.825,1.825,0,0,1,78.793,148H89.807a1.825,1.825,0,0,1,1.825,1.825Zm7.333-.6a1.224,1.224,0,0,1-1.925.986l-4.185-2.886v-6.01l4.185-2.886a1.226,1.226,0,0,1,1.925.985ZM88.522,153.37H87.5l-1.771,1.857V153.37h-.915v3.976h.915v-1.005l.533-.557,1.273,1.562h1.08l-1.744-2.207Zm-4.868,1.647h-.869v.744H81.717l1.739-2.391H82.49l-1.868,2.521v.62h2.141v.835h.9v-.835h.647v-.75h-.647Z" transform="translate(-60.171 -113.192)" fill="#217262"/><path d="M148.153,238.413l1.647-1.773h-1.019l-1.771,1.857V236.64H146.1v3.976h.915v-1.005l.533-.557,1.273,1.562h1.08Zm-3.226-.126h-.869v.744H142.99l1.739-2.391h-.961l-1.868,2.521v.62h2.141v.835h.9v-.835h.647v-.75h-.647Z" transform="translate(-121.449 -196.462)" fill="#217262"/><path d="M144.932,239.031v-.744h-.869v.744H143l1.739-2.391h-.966l-1.868,2.521v.62h2.141v.835h.9v-.835h.647v-.75Z" transform="translate(-121.449 -196.462)" fill="#217262"/><path d="M168.668,238.413l1.647-1.773H169.3l-1.771,1.857V236.64h-.915v3.976h.915v-1.005l.533-.557,1.273,1.562h1.08Z" transform="translate(-141.964 -196.462)" fill="#217262"/></svg>