<svg xmlns="http://www.w3.org/2000/svg" width="53.841" height="61.123" viewBox="0 0 53.841 61.123"><path d="M23.95,28.128a2.5,2.5,0,0,1-1.769-4.274L44.274,1.761a6.021,6.021,0,0,1,8.5,0L74.557,23.54a2.5,2.5,0,1,1-3.54,3.54L49.238,5.3a1.007,1.007,0,0,0-1.425,0L25.719,27.394a2.491,2.491,0,0,1-1.769.733Z" transform="translate(-21.449 -0.003)" fill="#217262"/><path d="M96.572,136.34H77.583a9.489,9.489,0,0,0-9.493,9.493v18.989a9.491,9.491,0,0,0,9.494,9.493H96.572a9.493,9.493,0,0,0,9.493-9.493V145.833A9.493,9.493,0,0,0,96.572,136.34Zm.17,21.828a5.065,5.065,0,1,1-7.17,7.148l-2.127-2.133-2.133,2.133a5.065,5.065,0,1,1-7.151-7.174l2.139-2.127-2.127-2.133a5.064,5.064,0,1,1,7.172-7.152l2.12,2.133,2.133-2.127a5.065,5.065,0,1,1,7.153,7.172l-2.133,2.127Z" transform="translate(-60.171 -113.192)" fill="#217262"/><path d="M163.246,231.125a7.857,7.857,0,0,0-.694-1.231,5.007,5.007,0,0,0,1-2.9,1.574,1.574,0,0,0-.458-1.01,1.548,1.548,0,0,0-.978-.43,4.919,4.919,0,0,0-2.92,1.061,7.866,7.866,0,0,0-1.248-.666,4.189,4.189,0,0,0-1.172-.318,1.6,1.6,0,0,0-1.91,1.905h0a5.752,5.752,0,0,0,1.049,2.436,7.873,7.873,0,0,0-.666,1.248,3.825,3.825,0,0,0-.34,1.458,1.528,1.528,0,0,0,1.63,1.635h0a3.747,3.747,0,0,0,1.491-.367,7.945,7.945,0,0,0,1.233-.694,7.814,7.814,0,0,0,1.25.666,3.824,3.824,0,0,0,1.442.331,1.984,1.984,0,0,0,.6-.087,1.415,1.415,0,0,0,.969-.966A2.86,2.86,0,0,0,163.246,231.125Zm-1.324-4.391a.484.484,0,0,1,.34.1.509.509,0,0,1,.105.363,3.793,3.793,0,0,1-.586,1.7c-.233-.27-.484-.536-.749-.8a10.793,10.793,0,0,0-.815-.73A3.682,3.682,0,0,1,161.922,226.734Zm-5.791.17a.521.521,0,0,1,.363-.1,2.756,2.756,0,0,1,1,.243,6.235,6.235,0,0,1,.693.34c-.273.234-.538.486-.793.745a10.524,10.524,0,0,0-.728.815C156.032,227.9,155.921,227.119,156.13,226.9Zm1.43,5.956c-.73.321-1.207.317-1.358.17s-.17-.623.139-1.358a5.686,5.686,0,0,1,.34-.693c.234.273.486.538.745.793s.537.5.812.727A6.068,6.068,0,0,1,157.56,232.86Zm1.7-1.073a11.89,11.89,0,0,1-1.878-1.832,11.779,11.779,0,0,1,1.83-1.878,11.2,11.2,0,0,1,.993.863,11.982,11.982,0,0,1,.888.971,11.382,11.382,0,0,1-.864.99,10.853,10.853,0,0,1-.973.886Zm3.078,1.171c-.146.149-.623.17-1.358-.139a5.955,5.955,0,0,1-.694-.34c.27-.231.535-.48.793-.745s.5-.533.727-.812a6.063,6.063,0,0,1,.36.679c.318.732.316,1.209.178,1.357Z" transform="translate(-132.195 -187.249)" fill="#217262"/></svg>